<svg id="Layer_1" data-name="Layer 1" xmlns="http://www.w3.org/2000/svg" xmlns:xlink="http://www.w3.org/1999/xlink" viewBox="0 0 616 205.1"><defs><style>.cls-1,.cls-21{fill:#fff;}.cls-1,.cls-13,.cls-16,.cls-17,.cls-18,.cls-19,.cls-20,.cls-21,.cls-25,.cls-26,.cls-27,.cls-29,.cls-30,.cls-31,.cls-32,.cls-33,.cls-34,.cls-4,.cls-6,.cls-7,.cls-8{fill-rule:evenodd;}.cls-2{fill:none;}.cls-3{clip-path:url(#clip-path);}.cls-4{fill:#ebf7f9;}.cls-5{mask:url(#mask);}.cls-6{fill:#00686c;}.cls-7{fill:#81cac8;}.cls-8{fill:#4a9d9e;}.cls-9{mask:url(#mask-2-2);}.cls-10{mask:url(#mask-3);}.cls-11{mask:url(#mask-4);}.cls-12{opacity:0.47;}.cls-13{fill:#b1e2eb;}.cls-14{mask:url(#mask-5);}.cls-15{mask:url(#mask-6);}.cls-16{fill:#879999;}.cls-17{fill:#73b8c2;}.cls-18{fill:#b4e4eb;}.cls-19{fill:#c1a13d;}.cls-20{fill:#12749b;}.cls-21{opacity:0.61;}.cls-21,.cls-27{isolation:isolate;}.cls-22{fill:#dc6757;}.cls-23{mask:url(#mask-7);}.cls-24{mask:url(#mask-8-2);}.cls-25{fill:#ffb9b0;}.cls-26{fill:#ffe8e5;}.cls-27{fill:#fff3f1;opacity:0.79;}.cls-28{mask:url(#mask-9);}.cls-29{fill:#144c6c;}.cls-30{fill:#ffcfa6;}.cls-31{fill:#ffe8a8;}.cls-32{fill:#316f8d;}.cls-33{fill:#ca8655;}.cls-34{fill:#b38b1b;}.cls-35{fill:#ff8b7c;}.cls-36{mask:url(#mask-10-2);}.cls-37{mask:url(#mask-11);}.cls-38{mask:url(#mask-12-2);}.cls-39{mask:url(#mask-13);}.cls-40{mask:url(#mask-14-2);}.cls-41{mask:url(#mask-15);}.cls-42{mask:url(#mask-16-2);}.cls-43{mask:url(#mask-17);}.cls-44{mask:url(#mask-18-2);}</style><clipPath id="clip-path"><rect class="cls-2" y="-11.5" width="616" height="216.61"/></clipPath><mask id="mask" x="69.96" y="-185.85" width="321" height="615.88" maskUnits="userSpaceOnUse"><g id="mask-2"><path id="path-1" class="cls-1" d="M390.86-185.85Q391,430,390.93,430H225.4l-.47-615.88Z"/></g></mask><mask id="mask-2-2" x="67.6" y="151.1" width="119.37" height="96.1" maskUnits="userSpaceOnUse"><g id="mask-8"><polygon id="path-7" class="cls-1" points="67.6 183.12 166.15 151.09 186.97 215.17 88.42 247.19 67.6 183.12"/></g></mask><mask id="mask-3" x="224.93" y="-185.85" width="296.95" height="615.88" maskUnits="userSpaceOnUse"><g id="mask-2-3" data-name="mask-2"><path id="path-1-2" data-name="path-1" class="cls-1" d="M390.86-185.85Q391,430,390.93,430H225.4l-.47-615.88Z"/></g></mask><mask id="mask-4" x="442.58" y="139.33" width="95.63" height="77.8" maskUnits="userSpaceOnUse"><g id="mask-10"><polygon id="path-9" class="cls-1" points="521.23 139.33 442.58 164.88 459.56 217.13 538.21 191.58 521.23 139.33"/></g></mask><mask id="mask-5" x="443.92" y="153.84" width="83.8" height="56.61" maskUnits="userSpaceOnUse"><g id="mask-2-4" data-name="mask-2"><polygon id="path-1-3" data-name="path-1" class="cls-1" points="526.61 153.84 443.92 155.52 445.04 210.44 527.72 208.76 526.61 153.84"/></g></mask><mask id="mask-6" x="263.96" y="26.89" width="223.92" height="204.62" maskUnits="userSpaceOnUse"><g id="mask-12"><polygon id="path-11" class="cls-1" points="303.51 26.89 487.87 72.86 448.32 231.5 263.96 185.54 303.51 26.89"/></g></mask><mask id="mask-7" x="83.35" y="139.26" width="139.13" height="119.51" maskUnits="userSpaceOnUse"><g id="mask-2-5" data-name="mask-2"><polygon id="path-1-4" data-name="path-1" class="cls-1" points="83.35 189.59 189.76 139.26 222.48 208.45 116.07 258.77 83.35 189.59"/></g></mask><mask id="mask-8-2" x="161.45" y="12.89" width="206.15" height="203.94" maskUnits="userSpaceOnUse"><g id="mask-14"><path id="path-13" class="cls-1" d="M244.69,15.12C189.77,26.8,151.87,79.5,163.58,134.59h0c11.71,55.1,68.6,91.73,123.52,80.06h0C342,203,377.05,148.85,365.34,93.75h0C353.62,38.65,299.61,3.45,244.69,15.12Z"/></g></mask><mask id="mask-9" x="208.62" y="50.9" width="63.49" height="78.42" maskUnits="userSpaceOnUse"><g id="mask-16"><polygon id="path-15" class="cls-1" points="208.62 54.02 268.16 50.9 272.11 126.19 212.56 129.32 208.62 54.02"/></g></mask><mask id="mask-10-2" x="346.61" y="100.52" width="25.86" height="24.72" maskUnits="userSpaceOnUse"><g id="mask-18"><polygon id="path-17" class="cls-1" points="347.03 100.52 372.47 100.96 372.04 125.24 346.61 124.79 347.03 100.52"/></g></mask><mask id="mask-11" x="323.21" y="30.17" width="19.87" height="30.8" maskUnits="userSpaceOnUse"><g id="mask-20"><polygon id="path-19" class="cls-1" points="323.75 30.17 343.08 30.51 342.55 60.97 323.21 60.63 323.75 30.17"/></g></mask><mask id="mask-12-2" x="344.67" y="157.63" width="8.52" height="27.25" maskUnits="userSpaceOnUse"><g id="mask-22"><polygon id="path-21" class="cls-1" points="344.67 157.77 352.72 157.63 353.19 184.74 345.14 184.88 344.67 157.77"/></g></mask><mask id="mask-13" x="180.75" y="164.41" width="25.47" height="20.92" maskUnits="userSpaceOnUse"><g id="mask-24"><polygon id="path-23" class="cls-1" points="180.75 164.41 206.22 164.41 206.22 185.33 180.75 185.33 180.75 164.41"/></g></mask><mask id="mask-14-2" x="183.72" y="34.48" width="29.37" height="24.3" maskUnits="userSpaceOnUse"><g id="mask-26"><polygon id="path-25" class="cls-1" points="183.72 34.48 213.08 34.48 213.08 58.78 183.72 58.78 183.72 34.48"/></g></mask><mask id="mask-15" x="157.57" y="98.62" width="6.13" height="24.93" maskUnits="userSpaceOnUse"><g id="mask-28"><polygon id="path-27" class="cls-1" points="157.57 98.62 163.71 98.62 163.71 123.55 157.57 123.55 157.57 98.62"/></g></mask><mask id="mask-16-2" x="174.44" y="97.51" width="7.03" height="24.8" maskUnits="userSpaceOnUse"><g id="mask-30"><polygon id="path-29" class="cls-1" points="174.44 97.51 181.47 97.51 181.47 122.31 174.44 122.31 174.44 97.51"/></g></mask><mask id="mask-17" x="166.64" y="97.51" width="7.36" height="25.03" maskUnits="userSpaceOnUse"><g id="mask-32"><polygon id="path-31" class="cls-1" points="166.64 97.51 173.99 97.51 173.99 122.54 166.64 122.54 166.64 97.51"/></g></mask><mask id="mask-18-2" x="254.92" y="5.39" width="23.48" height="31.4" maskUnits="userSpaceOnUse"><g id="mask-34"><polygon id="path-33" class="cls-1" points="254.92 5.39 278.4 5.39 278.4 36.79 254.92 36.79 254.92 5.39"/></g></mask></defs><title>Group 4 Copy</title><g class="cls-3"><g id="ddc_B" data-name="ddc B"><g id="Artboard"><g id="Group-4-Copy"><g id="Group-7"><g id="background"><g id="Mask-Copy"><path class="cls-4" d="M615.88,205Q0,205.15,0,205.08V39.55l615.88-.47Z"/></g><g class="cls-5"><g id="Group-14"><path class="cls-6" d="M152.2,159.4c-2.49-3.85-6.66-6.08-10.39-8.66a42.86,42.86,0,0,1-15.55-18.83c-1.33-3.34-1.43-6.63-2.17-10a51.14,51.14,0,0,1-6.15,1.25,19.7,19.7,0,0,0,5.06-4.92,31.64,31.64,0,0,0-5.16-9c-3.06-3.73-7.71-6.88-12.24-5.71-3.22.83-5.59,3.71-6.85,6.87-1.62,4.09-1.53,8.44-.83,12.77.73,4.52,1.15,8.41,3.4,12.59,1.83,3.41,4,6.76,4.73,10.57s0,7.8.93,11.57c1.68,6.78,8.17,11,14.14,14.36s12.53,7.31,14.62,14c1.34,4.32.5,8.94.48,13.44a28,28,0,0,0,4.86,16.57,19.47,19.47,0,0,0,8.65,6.75c3.19,1.22,8.62,2.54,11.56.48l1-5.73a66.48,66.48,0,0,1-8.2-36.94c.54-7.27,2.12-15.26-1.85-21.4"/><path id="Fill-3" class="cls-7" d="M156.09,223.58a.26.26,0,0,1-.28-.07c-8.05-8.74-8.07-22.55-8.08-32.64,0-12.13-1.1-24.38-8.94-31.78a40.62,40.62,0,0,0-8.51-5.68,55.62,55.62,0,0,1-6.48-4c-7.64-5.67-11.53-14.45-13.44-20.81-2.43-8.09-3.12-16.6-3.79-24.82a.27.27,0,0,1,.25-.3.29.29,0,0,1,.3.27c.66,8.19,1.35,16.67,3.76,24.7,1.89,6.27,5.71,14.92,13.23,20.5a56.37,56.37,0,0,0,6.41,3.92,41.37,41.37,0,0,1,8.63,5.76c8,7.56,9.12,20,9.13,32.22,0,10,0,23.67,7.92,32.23a.29.29,0,0,1,0,.4.24.24,0,0,1-.11.06"/><path id="Fill-5" class="cls-8" d="M116.92,152.09c-1.16,1.12-2.38,2.17-3.42,3a1,1,0,0,1-1.6-1.14l1.71-5.54A44.14,44.14,0,0,0,109.4,144c-.49-.42-1-.83-1.51-1.21-.6,1.56-1.29,3.1-1.87,4.33-.4.85-1.32.43-1.31-.59l.06-5.71c-4.17-2.26-8.9-3.53-13.5-4.73s-9.16-2.35-13.59-1.21-8.41,5.41-7.62,10.07c.59,3.5,3.57,6.08,6.59,7.85s6.37,3.14,8.78,5.72,3.66,6.26,5.35,9.53l5.64-1.31a1,1,0,0,1,1,1.73c-1,1.15-2.39,2.53-3.78,3.77,3.6,4,8.91,6.07,14.08,7.38,5.81,1.46,11.86,2.21,17.28,4.85,6.53,3.19,11.62,8.89,18,12.47,5.71,3.22,12.14,4.54,18,7.26,3.86,1.78,8.17,5,12.62,4.67s5.89-4.56,4.9-8.61c-1.33-5.43-6.55-8.46-10.45-11.8-9.51-8.14-15.34-20.94-26.54-26.27-7.21-3.43-15.9-3.3-22.33-8.13a22.19,22.19,0,0,1-2.25-2"/><path id="Fill-7" class="cls-7" d="M176.19,203.64a.23.23,0,0,1-.12,0c-11.15-1.59-20.9-8.21-29-14.48-1.91-1.48-3.83-3-5.69-4.53-6.56-5.28-13.33-10.73-20.88-14.5-1.93-1-4-1.84-5.9-2.68a72.72,72.72,0,0,1-9.35-4.57,74.56,74.56,0,0,1-10.82-8.64c-1.66-1.49-3.37-3-5.1-4.47-6.59-5.44-12.51-8.07-18.1-8a.29.29,0,0,1-.28-.29.27.27,0,0,1,.26-.29c5.73,0,11.77,2.64,18.45,8.17,1.75,1.44,3.47,3,5.12,4.49a75.14,75.14,0,0,0,10.75,8.57,72.88,72.88,0,0,0,9.27,4.54c2,.84,4,1.72,5.93,2.68,7.6,3.8,14.4,9.28,21,14.57,1.86,1.5,3.78,3.05,5.69,4.53,8,6.22,17.67,12.8,28.7,14.37a.28.28,0,0,1,.24.32.27.27,0,0,1-.19.23"/><g id="Group-11"><g class="cls-9"><path id="Fill-9" class="cls-6" d="M144.83,218c-7.1-3.1-13.75-7.58-21.28-9.2-1-.21-2-.37-3-.5A2.71,2.71,0,0,1,118.3,205a42,42,0,0,0,.8-5,1,1,0,0,0-2-.21,35.89,35.89,0,0,1-.6,4,5,5,0,0,1-4.92,4.06c-1.28,0-2.56,0-3.84-.09-.89,0-1.79-.08-2.68-.15a2.14,2.14,0,0,1-1.92-2.5c.14-.87.28-1.73.43-2.59.22-1.28-1.74-1.47-2-.21,0,.15-.05.29-.08.44a4.53,4.53,0,0,1-5.27,3.77A85.44,85.44,0,0,1,85,203.69c-4.44-1.45-9-3.4-12-7s-4.17-9.38-1.41-13.15,8.23-4.28,12.89-3.6c4.15.59,8.31,1.81,12.43,1.86a1.21,1.21,0,0,1,1.18,1.29c0,.62-.1,1.23-.15,1.81a1,1,0,0,0,2,.21,28,28,0,0,0,.14-3.31.23.23,0,0,1,.19-.25c5.05-.88,9.4-4.2,14.43-5.22,6.39-1.55,13.21,1.53,18.63,4.87,9.4,5.77,17.9,14.44,29,16.57,5.56,1.06,12.33.37,17.56,2.65,5.38,2.33,4.59,8.52,1.6,12.51-4,5.36-10.53,8.35-17.14,8.91S151,220.68,144.83,218"/></g></g><path id="Fill-12" class="cls-7" d="M183.41,207.81h0c-7.48.79-16.17,1.53-24.73.29-9.16-1.33-17-4.85-22.72-10.18-1.22-1.14-2.4-2.41-3.54-3.64-3-3.18-6-6.47-10-7.72-4.24-1.32-8.68-.12-13,1l-2.28.6a62.5,62.5,0,0,1-35.5-1.69.3.3,0,0,1-.18-.36.27.27,0,0,1,.35-.18,62,62,0,0,0,35.19,1.67l2.27-.6c4.38-1.18,8.9-2.4,13.28-1,4.15,1.3,7.26,4.65,10.27,7.88,1.13,1.22,2.3,2.48,3.51,3.61,7.1,6.64,16.11,9.12,22.42,10,8.5,1.23,17.15.49,24.6-.3a.29.29,0,0,1,.31.25.3.3,0,0,1-.19.31"/></g></g><g class="cls-10"><g id="Group-14-Copy"><path class="cls-6" d="M455,164.39c-.2-3.71,1.49-7.16,2.71-10.62A34.53,34.53,0,0,0,458.94,134c-.71-2.82-2.21-5-3.32-7.56a40.5,40.5,0,0,0,4.65-2.12,16,16,0,0,1-5.68-.8,25.53,25.53,0,0,1-.91-8.38c.24-3.9,1.8-8.17,5.33-9.57,2.52-1,5.46-.24,7.8,1.23a19.24,19.24,0,0,1,6.64,8c1.67,3.31,3.25,6,3.77,9.86.42,3.11.59,6.33,1.92,9.18s3.73,5.1,4.91,8c2.13,5.24-.14,11.09-2.47,16.15s-4.77,10.76-3,16.12c1.17,3.46,3.93,6.08,6.09,9a22.59,22.59,0,0,1,4.71,13.16,15.83,15.83,0,0,1-2.48,8.55c-1.52,2.32-4.47,5.77-7.39,5.83l-3.36-3.29A53.59,53.59,0,0,0,464,179.28c-3.82-4.5-8.68-9-9-14.89"/><path class="cls-7" d="M483.11,207.21a.23.23,0,0,0,.15-.19c1.13-9.52-5.43-18.53-10.21-25.12-5.75-7.91-10.85-16.42-9.24-25a32.48,32.48,0,0,1,2.89-7.74,47.14,47.14,0,0,0,2.36-5.66c2.31-7.34.69-14.9-1.08-20-2.25-6.43-5.83-12.3-9.31-18a.21.21,0,0,0-.3-.08.24.24,0,0,0-.07.31c3.46,5.66,7,11.51,9.27,17.9,1.74,5,3.35,12.44,1.07,19.65a45.26,45.26,0,0,1-2.34,5.6,33.13,33.13,0,0,0-2.92,7.86c-1.65,8.73,3.5,17.34,9.32,25.34,4.74,6.52,11.23,15.45,10.12,24.78a.24.24,0,0,0,.19.27h.1"/><path class="cls-8" d="M475.51,142.78c1.26.18,2.53.29,3.59.36a.82.82,0,0,0,.49-1.49l-3.68-2.8a35.32,35.32,0,0,1,.61-4.85c.11-.51.25-1,.4-1.5,1.12.74,2.27,1.41,3.22,1.95.66.36,1.05-.34.56-1L478,129.76a47.79,47.79,0,0,1,6.4-9.39c2.31-2.86,4.76-5.82,8.12-7.15s7.91-.42,9.58,3c1.26,2.55.56,5.62-.54,8.18s-2.59,5-2.92,7.83.59,5.79,1,8.71l-4.21,1.78a.84.84,0,0,0,.18,1.58c1.22.25,2.72.52,4.19.68-.45,4.26-2.85,8.12-5.54,11.39-3,3.67-6.54,7-8.76,11.24-2.68,5.13-3.26,11.22-5.64,16.51-2.14,4.76-5.62,8.63-8.12,13.16-1.63,3-2.86,7.11-5.87,9s-5.9-.21-7.16-3.31c-1.69-4.15.22-8.56,1.15-12.56,2.26-9.74,0-20.79,4.65-29.49,3-5.61,8.61-9.59,10.45-15.74a18.65,18.65,0,0,0,.52-2.33"/><path class="cls-7" d="M460.58,204.62l.08-.05c6.49-6.32,9.68-15.25,11.95-23.16.53-1.87,1.05-3.8,1.55-5.65,1.76-6.55,3.57-13.32,6.69-19.35.79-1.54,1.69-3.06,2.56-4.54a59.12,59.12,0,0,0,3.9-7.4,61.09,61.09,0,0,0,2.94-10.77c.37-1.75.74-3.57,1.19-5.33,1.7-6.67,4.3-11.18,7.94-13.81a.23.23,0,0,0,.05-.32.22.22,0,0,0-.31-.06c-3.73,2.69-6.38,7.29-8.11,14.06-.45,1.77-.83,3.59-1.19,5.36a60.71,60.71,0,0,1-2.92,10.68,59.71,59.71,0,0,1-3.87,7.35c-.87,1.47-1.77,3-2.57,4.55-3.14,6.08-5,12.87-6.73,19.44-.5,1.86-1,3.78-1.55,5.65-2.25,7.85-5.41,16.72-11.82,23a.23.23,0,0,0,0,.32.23.23,0,0,0,.23.07"/><g class="cls-11"><path class="cls-6" d="M488,199c3.1-5.42,5.26-11.53,9.34-16.17q.81-.92,1.68-1.74a2.24,2.24,0,0,0-.08-3.25,33.32,33.32,0,0,1-2.89-2.93c-.69-.8.47-1.86,1.16-1.06a28.1,28.1,0,0,0,2.28,2.35,4,4,0,0,0,5.1.35c.81-.62,1.63-1.24,2.42-1.88.56-.44,1.12-.9,1.66-1.37a1.77,1.77,0,0,0,.05-2.57l-1.5-1.5c-.75-.74.42-1.8,1.16-1.07l.26.26a3.58,3.58,0,0,0,5.18,0,68.87,68.87,0,0,0,5.94-7.24c2.17-3.07,4.16-6.5,4.4-10.35s-1.77-8.18-5.33-9.36-7.33,1.07-10,3.73c-2.39,2.36-4.49,5.14-7.12,7.13a1,1,0,0,0-.15,1.4c.32.4.65.77.95,1.13.69.81-.48,1.87-1.16,1.07a22.69,22.69,0,0,1-1.65-2.12.2.2,0,0,0-.25-.08c-3.67,1.82-8,1.68-11.76,3.39-4.85,2-7.78,7.28-9.7,12.06-3.31,8.27-4.67,18-10.79,24.69-3.07,3.34-7.76,6.09-10.05,10.08s1.09,7.81,4.91,9a18.66,18.66,0,0,0,15.25-2.23A32.19,32.19,0,0,0,488,199"/></g><path class="cls-7" d="M458.71,211h0c5.28-3,11.33-6.7,16.35-11.59,5.36-5.24,8.83-11.3,10-17.52.26-1.33.43-2.72.59-4.07.42-3.5.85-7.11,2.88-9.85s5.63-4.21,9-5.5l1.78-.69a50.6,50.6,0,0,0,22.46-18,.24.24,0,0,0-.06-.32.21.21,0,0,0-.31.05,50.06,50.06,0,0,1-22.26,17.86c-.58.24-1.18.47-1.77.69-3.43,1.31-7,2.67-9.19,5.66-2.11,2.82-2.55,6.5-3,10.06-.17,1.34-.33,2.73-.59,4-1.49,7.74-6.21,13.67-9.9,17.27-5,4.86-11,8.5-16.26,11.53a.23.23,0,0,0-.08.31.21.21,0,0,0,.26.11"/></g></g></g><g id="ddc_B-2" data-name="ddc B" class="cls-12"><g id="Artboard-2" data-name="Artboard"><g id="Group-4-Copy-2" data-name="Group-4-Copy"><g id="Group-7-2" data-name="Group-7"><g id="background-2" data-name="background"><g id="Group-3"><path id="Fill-1" class="cls-13" d="M255,94.19c28.59,25.86-9.63,59.05,10.17,73.55s101.8,42.75,19.22,98.82S137.61,311.77,61.63,315.74c-53.18,2.79-123.47-22.68-106.23-67s28.21-43.76,8.53-72.06S-27.43,48,40.33,108.55,115,81.91,160.4,123.29c16.89,15.4,49.42-70,94.6-29.1"/></g></g></g></g></g></g><g id="ddc_B-3" data-name="ddc B" class="cls-12"><g id="Artboard-3" data-name="Artboard"><g id="Group-4-Copy-3" data-name="Group-4-Copy"><g id="Group-7-3" data-name="Group-7"><g id="background-3" data-name="background"><g id="Group-3-2" data-name="Group-3"><path id="Fill-1-2" data-name="Fill-1" class="cls-13" d="M402.61,76c-23.4,21.2,7.88,48.41-8.33,60.29s-83.31,35-15.73,81,120.13,37.06,182.31,40.32c43.53,2.28,101.06-18.59,86.95-54.92s-23.09-35.88-7-59.07-7.08-105.46-62.54-55.85S517.15,65.9,480,99.82C466.21,112.44,439.59,42.47,402.61,76"/></g></g></g></g></g></g><g id="ddc_B-4" data-name="ddc B"><g id="Artboard-4" data-name="Artboard"><g id="Group-4-Copy-4" data-name="Group-4-Copy"><g id="Group-7-4" data-name="Group-7"><g id="background-4" data-name="background"><g id="Group-14-Copy-2" data-name="Group-14-Copy"><path id="Fill-1-3" data-name="Fill-1" class="cls-6" d="M455.92,158.63c.89-3.6,3.51-6.42,5.68-9.38a34.58,34.58,0,0,0,6.93-18.53c.13-2.91-.67-5.45-1-8.21a41.39,41.39,0,0,0,5.07-.67,16.17,16.17,0,0,1-5.21-2.42,25.31,25.31,0,0,1,1.56-8.27c1.36-3.67,4.09-7.31,7.88-7.63,2.7-.22,5.29,1.35,7.1,3.44A19.15,19.15,0,0,1,488,116.5c.65,3.65,1.37,6.73.75,10.53-.49,3.1-1.26,6.24-.81,9.34s2.09,6,2.38,9.1c.51,5.63-3.35,10.56-7,14.73s-7.69,8.92-7.51,14.57c.12,3.66,2,7,3.22,10.4a22.63,22.63,0,0,1,.69,14,15.73,15.73,0,0,1-4.85,7.47c-2.12,1.78-5.95,4.23-8.76,3.44l-2.26-4.13a53.62,53.62,0,0,0-3.57-30.42c-2.35-5.42-5.71-11.11-4.3-16.86"/><path id="Fill-3-2" data-name="Fill-3" class="cls-7" d="M470.46,207.77a.2.2,0,0,0,.19-.14c3.84-8.78.18-19.31-2.49-27-3.22-9.24-5.63-18.86-1.61-26.57a32.92,32.92,0,0,1,5-6.58,45,45,0,0,0,3.91-4.74c4.33-6.34,5-14.05,4.74-19.4-.29-6.81-2-13.48-3.7-19.92a.21.21,0,0,0-.26-.16.23.23,0,0,0-.16.28c1.67,6.42,3.4,13.06,3.69,19.82.22,5.27-.41,12.87-4.67,19.11a43.82,43.82,0,0,1-3.87,4.69,33.21,33.21,0,0,0-5.06,6.67c-4.11,7.88-1.67,17.62,1.58,27,2.64,7.61,6.27,18,2.5,26.65a.25.25,0,0,0,.11.31l.1,0"/><path id="Fill-5-2" data-name="Fill-5" class="cls-8" d="M481.84,143.9c1.16.54,2.35,1,3.34,1.38a.82.82,0,0,0,.9-1.28l-2.71-3.75a33.65,33.65,0,0,1,2-4.46c.25-.46.52-.89.81-1.32.86,1,1.77,2,2.52,2.79.52.54,1.1,0,.83-.79L488,132.16a47.66,47.66,0,0,1,8.85-7.14c3-2.06,6.23-4.19,9.84-4.49s7.69,1.89,8.31,5.62c.46,2.81-1.09,5.55-2.89,7.69s-3.94,4-5.07,6.64-1.11,5.71-1.52,8.63l-4.55.49a.84.84,0,0,0-.28,1.57c1.09.59,2.45,1.28,3.81,1.86-1.66,3.95-5.08,6.94-8.6,9.29-4,2.64-8.29,4.8-11.64,8.23-4.05,4.13-6.37,9.79-10.18,14.17-3.42,3.94-7.88,6.63-11.59,10.24-2.42,2.37-4.79,6-8.2,6.86s-5.59-1.9-5.9-5.23c-.42-4.47,2.69-8.14,4.74-11.69,5-8.67,6-19.9,13-26.89,4.5-4.49,11-6.68,14.56-12a17.8,17.8,0,0,0,1.17-2.08"/><path id="Fill-7-2" data-name="Fill-7" class="cls-7" d="M449.65,198.76l.09,0c8-4.17,13.68-11.79,18.14-18.71,1.06-1.64,2.11-3.33,3.12-5,3.58-5.76,7.28-11.71,12-16.58,1.21-1.25,2.5-2.44,3.76-3.6a59.14,59.14,0,0,0,5.88-6,60.63,60.63,0,0,0,5.93-9.45c.86-1.57,1.75-3.2,2.69-4.76,3.56-5.89,7.35-9.46,11.6-10.91a.24.24,0,0,0,.14-.3.22.22,0,0,0-.28-.14c-4.35,1.49-8.22,5.12-11.83,11.11-.95,1.56-1.84,3.19-2.7,4.77a60.78,60.78,0,0,1-5.89,9.38,57.12,57.12,0,0,1-5.83,5.91c-1.26,1.16-2.57,2.37-3.78,3.62-4.77,4.91-8.48,10.88-12.07,16.66-1,1.63-2.06,3.32-3.12,5-4.42,6.87-10,14.44-18,18.55a.24.24,0,0,0-.09.31.21.21,0,0,0,.2.13"/><g id="Group-11-2" data-name="Group-11"><g class="cls-14"><path id="Fill-9-2" data-name="Fill-9" class="cls-6" d="M477.55,201.34c4.53-4.28,8.37-9.51,13.62-12.77.68-.43,1.39-.81,2.1-1.17a2.24,2.24,0,0,0,.87-3.14,35.06,35.06,0,0,1-1.92-3.64c-.42-1,1-1.65,1.42-.68s1,2,1.5,2.91a3.94,3.94,0,0,0,4.78,1.81c1-.36,1.92-.71,2.87-1.09l2-.83a1.77,1.77,0,0,0,.79-2.45l-1-1.88c-.5-.92.93-1.6,1.42-.68.06.11.12.21.17.32a3.57,3.57,0,0,0,5,1.49,67.32,67.32,0,0,0,7.79-5.21c3-2.3,5.86-5,7.21-8.63s.68-8.33-2.39-10.5-7.33-1.09-10.67.67c-3,1.57-5.78,3.62-8.88,4.76a1,1,0,0,0-.54,1.31c.19.46.39.92.58,1.35.42,1-1,1.65-1.42.69a24.56,24.56,0,0,1-1-2.51.2.2,0,0,0-.21-.15c-4,.68-8.19-.72-12.24-.16-5.23.51-9.56,4.71-12.77,8.73-5.57,7-9.7,15.91-17.49,20.5-3.9,2.31-9.19,3.59-12.54,6.74s-1.21,7.8,2.08,10.07a18.67,18.67,0,0,0,15.25,2.28,32.16,32.16,0,0,0,13.65-8.14"/></g></g><path id="Fill-12-2" data-name="Fill-12" class="cls-7" d="M446,204.32h.05c5.93-1.39,12.78-3.13,19-6.36,6.66-3.46,11.73-8.25,14.68-13.86.63-1.2,1.2-2.48,1.74-3.72,1.42-3.23,2.88-6.57,5.62-8.59s6.6-2.41,10.2-2.67l1.91-.14a50.55,50.55,0,0,0,26.71-10.75.24.24,0,0,0,0-.33.21.21,0,0,0-.31,0,50,50,0,0,1-26.48,10.65c-.63.06-1.26.1-1.9.15-3.66.26-7.44.53-10.43,2.75-2.83,2.1-4.32,5.49-5.76,8.77-.54,1.24-1.1,2.51-1.73,3.7-3.67,7-9.9,11.28-14.48,13.66-6.18,3.21-13,5-18.9,6.32a.24.24,0,0,0-.17.28.21.21,0,0,0,.22.18"/></g></g></g></g></g></g><g id="Group-86-Copy"><g class="cls-15"><path class="cls-16" d="M299.89,194.2a12.14,12.14,0,0,1-11.8-12.5L291,78.14A10.74,10.74,0,0,1,301.45,67.7l149.91-3.65a7.88,7.88,0,0,1,8.07,8l-1.17,118.75a7.52,7.52,0,0,1-7.7,7.45Z"/></g><path id="Fill-4" class="cls-17" d="M290.29,185.46a3.54,3.54,0,0,1-3.4-4.11c2.31-14.09,9.58-62.56,7.63-102.85a3.27,3.27,0,0,1,3.18-3.44l150.59-4a3.76,3.76,0,0,1,3.85,3.64c.52,16.94,2.43,86.68-.86,111.45a3,3,0,0,1-3,2.59Z"/><path id="Fill-6" class="cls-18" d="M294.11,183.89a3.4,3.4,0,0,1-3.28-3.95c2.22-13.56,9.22-60.21,7.35-99a3.15,3.15,0,0,1,3.05-3.31l144.92-3.86a3.62,3.62,0,0,1,3.71,3.51c.5,16.3,2.34,83.41-.83,107.25a2.86,2.86,0,0,1-2.9,2.49Z"/><path id="Fill-8" class="cls-19" d="M315.93,84.5l-1.38,0a2.71,2.71,0,0,1-2.63-2.79l.56-20.18A2.75,2.75,0,0,1,314.22,59l2.92-1.13a2.7,2.7,0,0,1,3.67,2.79L318.7,82.05a2.71,2.71,0,0,1-2.77,2.45"/><path id="Fill-10" class="cls-19" d="M344.21,83.74l-1.38,0a2.7,2.7,0,0,1-2.63-2.78l.57-20.18a2.73,2.73,0,0,1,1.73-2.47l2.92-1.13a2.71,2.71,0,0,1,3.67,2.8L347,81.29a2.71,2.71,0,0,1-2.77,2.45"/><path class="cls-20" d="M381.86,84.74l-1.38,0a2.71,2.71,0,0,1-2.63-2.79l.57-20.18a2.7,2.7,0,0,1,1.73-2.46l2.92-1.14a2.71,2.71,0,0,1,3.68,2.8l-2.12,21.35a2.71,2.71,0,0,1-2.77,2.45"/><path id="Fill-14" class="cls-20" d="M419.57,83.71l-1.38,0a2.71,2.71,0,0,1-2.63-2.79l.56-20.18a2.73,2.73,0,0,1,1.74-2.46l2.92-1.14a2.71,2.71,0,0,1,3.67,2.8l-2.11,21.35a2.73,2.73,0,0,1-2.77,2.46"/><path id="Fill-16" class="cls-21" d="M383.72,102.72l-.29,10.46a2.85,2.85,0,0,0,2.82,2.94l10.7.12a2.86,2.86,0,0,0,2.89-2.79l.3-11a2.84,2.84,0,0,0-2.95-2.93l-10.72.42a2.86,2.86,0,0,0-2.75,2.78"/><path id="Fill-18" class="cls-21" d="M346.21,115.82l10.7.12a2.87,2.87,0,0,0,2.89-2.79l.26-9.36a2.84,2.84,0,0,0-2.93-2.93l-10.72.33a2.85,2.85,0,0,0-2.77,2.78l-.25,8.91a2.86,2.86,0,0,0,2.82,2.94"/><path id="Fill-20" class="cls-21" d="M355.27,162.48l-10.18-.15a3.12,3.12,0,0,0-3.17,3l-.26,9.56a3.1,3.1,0,0,0,2.95,3.2l10.18.49a3.13,3.13,0,0,0,3.26-3l.28-9.89a3.12,3.12,0,0,0-3.06-3.21"/><path id="Fill-22" class="cls-21" d="M338.05,174.68l.27-9.35a3.07,3.07,0,0,0-3-3.15L325,162a3.06,3.06,0,0,0-3.11,3l-.25,9a3.06,3.06,0,0,0,2.91,3.15l10.27.49a3.05,3.05,0,0,0,3.21-3"/><path id="Fill-24" class="cls-21" d="M339.24,132.48l.21-7.68a3.3,3.3,0,0,0-3.27-3.39l-9.83,0a3.3,3.3,0,0,0-3.31,3.21l-.2,7.34a3.29,3.29,0,0,0,3.16,3.38l9.81.38a3.3,3.3,0,0,0,3.43-3.21"/><path id="Fill-26" class="cls-21" d="M338.61,154.78l.33-11.74a3.06,3.06,0,0,0-2.94-3.15l-10-.38a3.3,3.3,0,0,0-3.42,3.21l-.34,11.84a3.07,3.07,0,0,0,3,3.15l10.29,0a3.05,3.05,0,0,0,3.08-3"/><path id="Fill-28" class="cls-21" d="M366.23,116l10.7.12a2.88,2.88,0,0,0,2.89-2.79l.28-10.19a2.85,2.85,0,0,0-2.93-2.94l-10.72.33a2.87,2.87,0,0,0-2.77,2.79l-.27,9.74a2.85,2.85,0,0,0,2.82,2.94"/><path id="Fill-30" class="cls-21" d="M358.63,154.83l.31-11a3.12,3.12,0,0,0-3-3.21l-10.17-.39a3.13,3.13,0,0,0-3.24,3l-.32,11.31a3.13,3.13,0,0,0,3.09,3.21l10.19.05a3.12,3.12,0,0,0,3.13-3"/><path id="Fill-32" class="cls-21" d="M377.17,121.56l-11.69,0a2.36,2.36,0,0,0-2.37,2.3l-.3,10.56a2.37,2.37,0,0,0,2.27,2.43l11.68.44a2.37,2.37,0,0,0,2.45-2.3l.31-11a2.35,2.35,0,0,0-2.35-2.43"/><path id="Fill-34" class="cls-21" d="M383.11,124.49l-.28,10a3,3,0,0,0,2.85,3.05l10.46.4a3,3,0,0,0,3.09-2.89l.29-10.42a3,3,0,0,0-2.95-3.05l-10.48,0a3,3,0,0,0-3,2.9"/><path id="Fill-36" class="cls-21" d="M345.08,136l11.68.45a2.37,2.37,0,0,0,2.45-2.3l.29-10.27a2.35,2.35,0,0,0-2.35-2.43l-11.69,0a2.36,2.36,0,0,0-2.37,2.3l-.28,9.86a2.37,2.37,0,0,0,2.27,2.43"/><path id="Fill-38" class="cls-21" d="M376,141.42,365.78,141a3.13,3.13,0,0,0-3.24,3l-.3,10.65a3.12,3.12,0,0,0,3.09,3.21l10.19,0a3.12,3.12,0,0,0,3.13-3l.29-10.32a3.1,3.1,0,0,0-3-3.2"/><path id="Fill-40" class="cls-21" d="M396.3,142.2l-10.88-.42a2.77,2.77,0,0,0-2.87,2.69l-.3,10.73A2.76,2.76,0,0,0,385,158l10.9.06a2.78,2.78,0,0,0,2.77-2.7L399,145a2.75,2.75,0,0,0-2.65-2.83"/><path id="Fill-42" class="cls-21" d="M327.69,115.47l8.12.09a4,4,0,0,0,4-3.86L340,105a3.53,3.53,0,0,0-3.63-3.63l-9,.28a3.89,3.89,0,0,0-3.76,3.78l-.16,5.61a4.33,4.33,0,0,0,4.27,4.45"/><path id="Fill-44" class="cls-21" d="M318.3,165.27a3.29,3.29,0,0,0-3.24-3.39l-3.54-.06c-2.69,0-4.9,1.73-5,4l-.19,6.49c-.06,2.23,2,4.11,4.68,4.24l3.8.18a3.08,3.08,0,0,0,3.21-3Z"/><path id="Fill-46" class="cls-21" d="M432.1,163.64l-7-.1a3.12,3.12,0,0,0-3.16,3l-.34,12.17a3.11,3.11,0,0,0,3,3.21l6.92.33c2.77.13,5.09-1.66,5.16-4l.29-10.44c.07-2.29-2.12-4.2-4.87-4.24"/><path id="Fill-48" class="cls-21" d="M311.83,157.63l3.45,0a3.3,3.3,0,0,0,3.32-3.21l.33-11.93a3.3,3.3,0,0,0-3.16-3.39L312.3,139c-2.74-.11-5,1.68-5.1,4l-.3,10.44c-.06,2.3,2.17,4.22,4.93,4.23"/><path id="Fill-50" class="cls-21" d="M312.28,134.79l4.34.17a2.5,2.5,0,0,0,2.59-2.43l.24-8.62a2.49,2.49,0,0,0-2.47-2.57h-4.39c-2.67,0-4.84,1.75-4.9,4l-.15,5.26c-.06,2.24,2,4.13,4.74,4.23"/><path id="Fill-52" class="cls-21" d="M433.66,98.37l-7,.22a3,3,0,0,0-2.88,2.89l-.34,12a3,3,0,0,0,2.93,3l7.19.08c2.68,0,4.88-1.74,4.94-4l.28-10.06c.07-2.38-2.29-4.32-5.14-4.24"/><path id="Fill-54" class="cls-21" d="M375.28,162.78l-10.18-.15a3.12,3.12,0,0,0-3.16,3l-.29,10.22a3.12,3.12,0,0,0,3,3.2l10.17.48a3.12,3.12,0,0,0,3.27-3l.29-10.55a3.12,3.12,0,0,0-3.06-3.21"/><path id="Fill-56" class="cls-21" d="M433.21,121.76l-7.08,0a3,3,0,0,0-3,2.9l-.32,11.44a3,3,0,0,0,2.85,3.05l7.1.27c2.74.11,5-1.68,5.1-4l.27-9.42c.06-2.31-2.17-4.23-4.94-4.24"/><path id="Fill-58" class="cls-21" d="M432.8,143.59l-7.38-.28a2.78,2.78,0,0,0-2.87,2.69l-.26,9.42a2.75,2.75,0,0,0,2.74,2.83l7.42.05c2.66,0,4.84-1.75,4.9-4l.18-6.5c.07-2.24-2-4.13-4.73-4.23"/><path id="Fill-60" class="cls-21" d="M402.55,145.23l-.28,10.08a2.76,2.76,0,0,0,2.74,2.84l10.89.06a2.78,2.78,0,0,0,2.78-2.7l.27-9.71a2.76,2.76,0,0,0-2.64-2.84l-10.89-.42a2.77,2.77,0,0,0-2.87,2.69"/><path id="Fill-62" class="cls-21" d="M415.31,163.39l-10.18-.15a3.12,3.12,0,0,0-3.17,3l-.32,11.52a3.11,3.11,0,0,0,3,3.2l10.17.49a3.13,3.13,0,0,0,3.27-3l.33-11.85a3.12,3.12,0,0,0-3.06-3.21"/><path id="Fill-64" class="cls-21" d="M313,115.31l4.26,0a2.5,2.5,0,0,0,2.52-2.43l.24-8.43a2.48,2.48,0,0,0-2.56-2.56l-4.52.13c-2.58.08-4.63,1.82-4.69,4l-.14,5c-.06,2.3,2.14,4.21,4.89,4.24"/><path id="Fill-66" class="cls-21" d="M395.29,163.09l-10-.15a3.29,3.29,0,0,0-3.34,3.21l-.3,10.69a3.1,3.1,0,0,0,3,3.2l10.16.49a3.13,3.13,0,0,0,3.27-3l.32-11.2a3.12,3.12,0,0,0-3.07-3.2"/><path id="Fill-68" class="cls-21" d="M403.76,102.1l-.31,11.19a3,3,0,0,0,2.93,3l10.47.12a3,3,0,0,0,3-2.9l.33-11.62a3,3,0,0,0-3.05-3.06l-10.49.32a3,3,0,0,0-2.88,2.9"/><path id="Fill-70" class="cls-21" d="M403.13,124.56l-.3,10.75a3,3,0,0,0,2.85,3.05l10.47.4a3,3,0,0,0,3.08-2.9l.31-11.11a3,3,0,0,0-3-3l-10.48,0a3,3,0,0,0-3,2.9"/><path id="Fill-72" class="cls-1" d="M312,93l.46,3.55a2.33,2.33,0,0,0,2.24,2h.17a2.32,2.32,0,0,0,2.38-2.27l.1-3.62a2.32,2.32,0,0,0-2.56-2.38l-.72.08A2.33,2.33,0,0,0,312,93"/><path id="Fill-74" class="cls-1" d="M328.38,92.18l.46,3.55a2.33,2.33,0,0,0,2.24,2h.16a2.33,2.33,0,0,0,2.39-2.26l.1-3.63a2.33,2.33,0,0,0-2.56-2.38l-.72.08a2.34,2.34,0,0,0-2.07,2.62"/><path id="Fill-76" class="cls-1" d="M348.56,92.57l.46,3.54a2.31,2.31,0,0,0,2.23,2h.17a2.33,2.33,0,0,0,2.39-2.26l.1-3.63a2.33,2.33,0,0,0-2.56-2.38l-.73.08a2.32,2.32,0,0,0-2.06,2.62"/><path id="Fill-78" class="cls-1" d="M368.23,91.79l.45,3.55a2.33,2.33,0,0,0,2.24,2h.17a2.32,2.32,0,0,0,2.38-2.26l.1-3.63A2.32,2.32,0,0,0,371,89.09l-.73.08a2.33,2.33,0,0,0-2.06,2.62"/><path id="Fill-80" class="cls-1" d="M388.44,89.32l.46,3.55a2.31,2.31,0,0,0,2.23,2h.17a2.32,2.32,0,0,0,2.38-2.27l.11-3.63a2.32,2.32,0,0,0-2.56-2.37l-.73.07a2.33,2.33,0,0,0-2.06,2.62"/><path id="Fill-82" class="cls-1" d="M409.83,89.89l.45,3.55a2.33,2.33,0,0,0,2.24,2h.17a2.32,2.32,0,0,0,2.38-2.27l.11-3.63a2.32,2.32,0,0,0-2.56-2.37l-.73.07a2.33,2.33,0,0,0-2.06,2.62"/><path id="Fill-84" class="cls-1" d="M427.89,89.61l.45,3.55a2.33,2.33,0,0,0,2.24,2h.17a2.32,2.32,0,0,0,2.38-2.27l.1-3.63a2.31,2.31,0,0,0-2.55-2.37L430,87a2.33,2.33,0,0,0-2.06,2.62"/><g id="like"><path id="Path" class="cls-22" d="M392.23,145.09a6.22,6.22,0,0,1,6.33-2.75c3.37.66,5.23,4,4.86,7.58a6.71,6.71,0,0,1-.67,2.38,10.88,10.88,0,0,1-4.27,4.8L388.75,163l-6.68-9.05a10.88,10.88,0,0,1-2.16-6.06,6.58,6.58,0,0,1,.27-2.45c1-3.42,4-5.87,7.34-5.21A6,6,0,0,1,392.23,145.09Z"/></g></g><g id="ddc_B-5" data-name="ddc B"><g id="Artboard-5" data-name="Artboard"><g id="Group-4-Copy-5" data-name="Group-4-Copy"><g id="Group-7-5" data-name="Group-7"><g id="background-5" data-name="background"><g id="Group-14-2" data-name="Group-14"><path id="Fill-1-4" data-name="Fill-1" class="cls-6" d="M175.24,150.63c-3.36-4-8.39-5.88-13-8.25-8.2-4.25-15.65-10.72-20.24-19-2-3.57-2.57-7.26-3.89-10.92a59,59,0,0,1-6.75,2.3,22.37,22.37,0,0,0,5-6.28,35.72,35.72,0,0,0-7.12-9.42c-4-3.76-9.68-6.64-14.61-4.67-3.51,1.4-5.77,5-6.73,8.73-1.23,4.85-.5,9.73.91,14.51,1.48,5,2.51,9.31,5.65,13.69,2.56,3.59,5.48,7.05,6.86,11.23s1.12,8.79,2.72,12.91c2.87,7.39,10.79,11.18,18,14.13s15.18,6.42,18.48,13.63c2.15,4.66,1.87,10,2.49,15.07.81,6.58,3.33,13.13,7.87,18a22.23,22.23,0,0,0,10.72,6.37c3.77.91,10.08,1.6,13.09-1.14l.26-6.59a75.5,75.5,0,0,1-14.57-40.44c-.45-8.27.18-17.5-5.18-23.85"/><path id="Fill-3-3" data-name="Fill-3" class="cls-7" d="M188.9,222.39a.29.29,0,0,1-.33,0c-10.34-8.67-12.35-24.24-13.82-35.6-1.76-13.67-4.76-27.31-14.66-34.52a46.4,46.4,0,0,0-10.42-5.16,64.89,64.89,0,0,1-7.87-3.53c-9.43-5.29-15.08-14.61-18.15-21.5-3.91-8.77-5.92-18.25-7.86-27.43a.31.31,0,0,1,.24-.37.33.33,0,0,1,.37.26c1.93,9.14,3.93,18.59,7.81,27.29,3,6.79,8.59,16,17.87,21.19a63.7,63.7,0,0,0,7.79,3.49,46.42,46.42,0,0,1,10.56,5.24c10.11,7.36,13.15,21.16,14.94,35,1.45,11.25,3.45,26.66,13.58,35.17a.33.33,0,0,1,.06.45.31.31,0,0,1-.11.09"/><path id="Fill-5-3" data-name="Fill-5" class="cls-8" d="M134.43,147.5c-1.14,1.43-2.37,2.79-3.42,3.89a1.16,1.16,0,0,1-2-1l1.12-6.48a49.82,49.82,0,0,0-5.38-4.39c-.61-.41-1.24-.79-1.88-1.15-.45,1.85-1,3.68-1.48,5.16-.33,1-1.42.67-1.56-.49l-.76-6.43c-5-1.94-10.54-2.69-15.89-3.39s-10.66-1.31-15.49.6-8.7,7.32-7.13,12.46c1.17,3.85,4.9,6.33,8.56,7.89s7.62,2.61,10.71,5.17,5,6.53,7.41,10l6.17-2.29a1.19,1.19,0,0,1,1.35,1.81c-1,1.44-2.34,3.2-3.72,4.79,4.63,4,10.92,5.55,16.93,6.28,6.76.81,13.68.77,20.17,3,7.81,2.65,14.38,8.34,22,11.45,6.89,2.8,14.33,3.36,21.37,5.57,4.61,1.45,9.94,4.5,14.89,3.44s6-6,4.28-10.41c-2.28-5.93-8.6-8.59-13.48-11.79-11.89-7.79-20.3-21.37-33.7-25.75-8.62-2.83-18.39-1.43-26.33-5.94a24.33,24.33,0,0,1-2.82-1.89"/><path id="Fill-7-3" data-name="Fill-7" class="cls-7" d="M208.67,197a.32.32,0,0,1-.14,0c-12.79-.17-24.73-6.23-34.72-12.12-2.37-1.4-4.76-2.87-7.08-4.29-8.14-5-16.57-10.17-25.62-13.32-2.31-.81-4.71-1.5-7-2.16a84.29,84.29,0,0,1-11.19-3.8,86,86,0,0,1-13.45-8.17c-2.08-1.44-4.23-2.93-6.39-4.3-8.21-5.18-15.26-7.29-21.55-6.44a.32.32,0,0,1-.36-.28.31.31,0,0,1,.26-.36c6.44-.87,13.63,1.27,22,6.53,2.17,1.38,4.33,2.87,6.41,4.32a85.32,85.32,0,0,0,13.35,8.11,84.49,84.49,0,0,0,11.11,3.77c2.32.67,4.73,1.36,7.06,2.17,9.11,3.18,17.57,8.36,25.74,13.38,2.31,1.42,4.7,2.88,7.07,4.28,9.92,5.85,21.76,11.86,34.41,12a.33.33,0,0,1,.32.32.32.32,0,0,1-.17.29"/><g id="Group-11-3" data-name="Group-11"><g class="cls-23"><path id="Fill-9-3" data-name="Fill-9" class="cls-6" d="M175.4,217.72c-8.45-2.48-16.59-6.55-25.3-7.29-1.14-.1-2.28-.14-3.42-.13a3.09,3.09,0,0,1-3.05-3.36,46.13,46.13,0,0,0,.18-5.76,1.12,1.12,0,0,0-2.23,0,41.14,41.14,0,0,1-.1,4.58,5.67,5.67,0,0,1-5,5.29c-1.44.16-2.88.32-4.33.45-1,.09-2,.17-3,.23a2.45,2.45,0,0,1-2.53-2.55c0-1,.07-2,.11-3,.06-1.47-2.18-1.41-2.24.05,0,.17,0,.34,0,.51a5.14,5.14,0,0,1-5.39,5,94.12,94.12,0,0,1-13.16-1.56c-5.21-1-10.58-2.53-14.55-6.19s-6-10-3.49-14.61,8.66-6,14-5.92c4.75.08,9.62.85,14.28.3a1.37,1.37,0,0,1,1.5,1.28c0,.71.07,1.4.1,2.07a1.12,1.12,0,0,0,2.24-.05,31.29,31.29,0,0,0-.33-3.74.29.29,0,0,1,.19-.32c5.56-1.72,10-6.09,15.49-8,7-2.67,15.11-.19,21.71,2.79,11.41,5.14,22.25,13.68,35,14.48,6.41.4,13.95-1.36,20.17.45,6.39,1.85,6.4,8.94,3.61,13.87-3.74,6.61-10.66,10.93-18,12.51s-15.13.65-22.44-1.49"/></g></g><path id="Fill-12-3" data-name="Fill-12" class="cls-7" d="M217.4,200.66l-.06,0c-8.31,2-18,4.07-27.82,3.91-10.51-.17-19.87-3-27.07-8.19-1.54-1.11-3-2.37-4.51-3.58-3.79-3.16-7.71-6.43-12.41-7.26-5-.88-9.8,1.12-14.48,3.05-.83.34-1.66.68-2.48,1a71,71,0,0,1-40.25,3.23.32.32,0,0,1-.25-.38.31.31,0,0,1,.36-.25,70.31,70.31,0,0,0,39.89-3.2c.83-.32,1.65-.66,2.48-1,4.76-2,9.68-4,14.81-3.09,4.87.87,8.85,4.19,12.71,7.4,1.45,1.21,3,2.46,4.47,3.56,9,6.45,19.48,7.94,26.72,8.06,9.75.16,19.4-1.92,27.67-3.89a.32.32,0,0,1,.38.25.31.31,0,0,1-.16.36"/></g></g></g></g></g></g><g id="Group-57"><g class="cls-24"><path class="cls-25" d="M244.69,15.12C189.77,26.8,151.87,79.5,163.58,134.59h0c11.71,55.1,68.6,91.73,123.52,80.06h0C342,203,377.05,148.85,365.34,93.75h0C353.62,38.65,299.61,3.45,244.69,15.12Z"/></g><g id="Group-56"><path class="cls-1" d="M166.4,110.7l-.27,0a1.06,1.06,0,0,1-1-1.11,91.83,91.83,0,0,1,1.54-12.8,1.05,1.05,0,1,1,2.07.4,90.92,90.92,0,0,0-1.5,12.5,1.08,1.08,0,0,1-.84,1"/><path class="cls-26" d="M351.49,96.34A88.15,88.15,0,0,1,283.77,201c-47.54,10.1-96.78-21.61-106.92-69.3s22.67-93.31,70.21-103.42A88.15,88.15,0,0,1,351.49,96.34"/><path class="cls-26" d="M351.49,96.34A88.15,88.15,0,0,0,247.06,28.28a92.21,92.21,0,0,0-59.79,42.35l78.08,41.26,32.3,84.94A88.22,88.22,0,0,0,351.49,96.34"/><path class="cls-27" d="M338.5,92.83c9.15,43-18.94,85.48-62.73,94.79s-89-19.14-98.15-62.19,21.22-84.37,65-93.68,86.71,18,95.86,61.08"/></g><g id="Group-52"><g class="cls-28"><path class="cls-29" d="M268.84,63.78a6.54,6.54,0,0,0-1.79-4.64c-1.95-2.3-4-4.66-6.6-6.1a13.07,13.07,0,0,0-16,3.38c-1.83,2.31-2.86,5.19-4.82,7.4-3.57,4-10,5.48-12,10.47-1.3,3.19-.34,6.84-.92,10.23-1.36,8-10.4,12.19-13.8,19.52-2.93,6.31-.91,14.34,4.17,19.07s12.72,6.23,19.44,4.53a49.47,49.47,0,0,0,6.26-2.21c16.39-6.65,17.65-6.91,19.52-8.91,5.32-5.66.14-14.87-.57-20.81-.5-4.18.32-8,1.89-17.67.3-1.91.35-4.19,1.26-5.94,1.45-2.77,4.15-4.61,3.92-8.32"/></g><path class="cls-7" d="M234.31,226.17h-.11a.65.65,0,0,1-.56-.71l5.93-49.5a.62.62,0,0,1,.7-.55.64.64,0,0,1,.56.71l-5.93,49.49a.63.63,0,0,1-.59.56"/><path class="cls-6" d="M256.88,225h-.11a.64.64,0,0,1-.56-.7l5.93-49.5a.63.63,0,0,1,1.25.15l-5.92,49.5a.64.64,0,0,1-.59.56"/><path class="cls-6" d="M291.18,223.19a.64.64,0,0,1-.65-.5l-11.06-48.6a.63.63,0,1,1,1.23-.28l11.07,48.6a.64.64,0,0,1-.48.76l-.11,0"/><path class="cls-7" d="M268.61,224.37a.63.63,0,0,1-.65-.49L256.9,175.27a.63.63,0,1,1,1.23-.28L269.2,223.6a.64.64,0,0,1-.48.76h-.11"/><path class="cls-7" d="M276.38,170.56l-9.39.49c-6.71.36-12.47-5.08-12.84-12.11L252,117.37a.65.65,0,0,1,1.3-.07l2.18,41.57c.33,6.32,5.47,11.2,11.47,10.89l9.4-.5a.65.65,0,0,1,.06,1.3"/><path class="cls-7" d="M250.47,171.92l-9.4.49c-6.71.35-12.47-5.08-12.84-12.11l-2.17-41.57a.65.65,0,0,1,1.29-.07l2.18,41.57c.33,6.32,5.48,11.2,11.47,10.88l9.4-.49a.65.65,0,0,1,.68.62.64.64,0,0,1-.61.68"/><path class="cls-30" d="M218,103c2.37,8.48,1.92,11.29.47,19.22-.58,3.42,3,5.54,6.81,5.37,30.25-1.39,29.46-1.13,32-3.34,2.35-2,2.41-4.07,2.79-6.9a40.67,40.67,0,0,0-.16-12.17c-.49-2.76-.72-4.74-3.06-6.59-2.69-2.11-2-1.55-31.89-1.67-4.2,0-8,2.48-7,6.08"/><path class="cls-30" d="M296.09,180.68l-48,2.51A16,16,0,0,1,231.26,168l-.12-2.25,47.81-2.5a16.23,16.23,0,0,1,17,15.39Z"/><path class="cls-29" d="M314.4,152l-31.8-7.42c-8.42-2.66-16.65-1.49-19.67,4,5.53.7,11.39.53,16.85,1.06a.78.78,0,0,1-.14.5.78.78,0,0,0,.14-.5c-5.46-.53-11.32-.36-16.85-1.06-1.08,2-.75,4.08-.33,6.6,3.88,23.35,37,13.46,37,13.46-6.32,7.27-.69,45.07-.69,45.07l3.42-.18,15.85-53.72A6,6,0,0,0,314.4,152"/><path class="cls-31" d="M278.68,157.21l-1.13-7.89a19.79,19.79,0,0,0,10.29-12c6.62-20.51-12.86-27.78-12.86-27.78.9-4.15-1.34-9.13-3.38-13.61,0,0,.43-6.22-1.73-7.15a21.2,21.2,0,0,0-7.13-1.9c-2.48,2.51-5.45,4.24-9,2.91-3.28-1.28-4.75-4.16-5.75-7.34l-.15.08C226,93.36,244,118,243.88,123.26c-.15,7.46-1.55,7.7-3.17,11.59,1.68,2.76,4.91,5.85,7.28,8.11,10.11,9.65,19.08,13.35,30.69,14.25"/><path class="cls-32" d="M310.47,156.52a7.72,7.72,0,0,0-6.36-4.67l-26.56-2.53c-11.6-.91-23.26-.93-31.76-9.62-2.3-2.35-3.77-5.14-5.45-7.9-2.35,5.66-4.86,10.7-5.82,15.33-1.58,7.64.64,25,22.37,26.13s43.62-5.86,43.62-5.86c2.68,13.66,5.45,18,29.27,46.34l4.4-1.13Z"/><path class="cls-33" d="M253.73,89.79c3.56,1.33,6.53-.4,9-2.91-2.5-.81-4.87-2.11-6.15-4.36-3.11-5.5-.2-9.52-.2-9.52l-4.68,1.28s-.66,6.46-3.73,8.17c1,3.18,2.47,6.06,5.75,7.34"/><path class="cls-33" d="M255.83,80.92c4.13.32,8.28-8.8,8.61-13.08s-2.31-12.09-7.68-11.65C252.83,56.51,249,58.45,250,71c.11,1.33,1.7,9.58,5.83,9.91"/><path class="cls-33" d="M279.34,137.08c-.39-.7-2.09-3.15-3.78-3.3s-5.5,1.22-5.5,1.22l-1.93,1.75c.83,1.57,5.5,2.32,7,2.24,1.83-.09,4.6-1.21,4.2-1.91"/><path class="cls-31" d="M270.37,138.22l-.31-3.22s-30.86-6.95-24.51-27.42c3-9.61,4.76-12.15,3.48-15.69-1-2.83-1.2-9.36-1.2-9.36-9.05,3.76-25.72,16.36-16.28,41,6.49,16.91,38.82,14.71,38.82,14.71"/><path class="cls-34" d="M270.08,135.24h0c-4.71-.38-17.32-6.23-23-14.27-2.54-3.61-3.35-7.19-2.43-10.65.43-1.58,1.75-6.35,2.27-7.73a.24.24,0,0,1,.31-.14.25.25,0,0,1,.15.31c-.52,1.36-1.83,6.11-2.26,7.69-.88,3.31-.09,6.75,2.36,10.24,5.57,7.92,18,13.69,22.6,14.06a.25.25,0,0,1,.23.27.25.25,0,0,1-.23.22"/><path class="cls-33" d="M278.41,114.59c-.12,1.27,3.92,3.91,5.81,3.32s1.43-.2,1.43-.2l.83,1.57c1.42-7.8-7.8-7.44-8.07-4.69"/><path class="cls-29" d="M263.45,59.38s-6.34,7.6-15.61,9,3.12-15.76,8.62-14c6.25,2,7,5,7,5"/><path class="cls-29" d="M260.52,59.7a16.15,16.15,0,0,1,4.62,9.39s2.18-9.74-1.82-12.15-2.8,2.76-2.8,2.76"/><path class="cls-34" d="M269.41,138.53c-4.45.23-17.12,0-26.93-4.26a.25.25,0,0,1-.13-.32.24.24,0,0,1,.32-.12c10.58,4.63,24.52,4.44,27.67,4.14a.25.25,0,0,1,.27.22.25.25,0,0,1-.22.27l-1,.07"/></g><g id="Group-2-Copy-6"><ellipse id="Oval-Copy-5" class="cls-35" cx="358.91" cy="112.79" rx="21.6" ry="21.53" transform="matrix(0.02, -1, 1, 0.02, 239.87, 469.67)"/><g id="Group-6"><g class="cls-36"><path class="cls-1" d="M371,108.79a5.25,5.25,0,0,1-2.53,3.1,6.07,6.07,0,0,1-.69.31.56.56,0,0,0-.34.71.57.57,0,0,0,.51.37.63.63,0,0,0,.19,0,6.35,6.35,0,0,0,.84-.38,6.56,6.56,0,0,0,.83-.54,10.83,10.83,0,0,1-3,7.88c-3.5,3.87-8.65,4.87-11.47,2.22a6.23,6.23,0,0,1-1.79-5,.57.57,0,0,0-.52-.59.55.55,0,0,0-.57.53,8.55,8.55,0,0,0,.22,2.51l0,.05a2.4,2.4,0,0,1-1.74,1.55,2.25,2.25,0,0,1-1.89-.63,4.09,4.09,0,0,1-.68-5,1,1,0,0,1,.82-.48c.22,0,.4.2.55.54,0,0,0,0,.05.06a7.6,7.6,0,0,0-.64,2.8.55.55,0,1,0,1.09,0,6,6,0,0,1,1.2-3.48,3,3,0,0,1,2.45-1.28c1.9.08,3.36,2.34,3.25,5a.55.55,0,0,0,.52.58h0a.55.55,0,0,0,.55-.53,7.6,7.6,0,0,0-.35-2.65,5,5,0,0,0,1,.27,5.27,5.27,0,0,0,.89.09,7,7,0,0,0,3.39-.86,7.2,7.2,0,0,0,2.12-1.69.58.58,0,0,0-.06-.79.54.54,0,0,0-.77.06,6.17,6.17,0,0,1-1.79,1.44,5.64,5.64,0,0,1-3.6.66,3.18,3.18,0,0,1-2.37-1.6c-.92-1.78.26-4.26,2.62-5.53a4.85,4.85,0,0,1,.61-.29,6.52,6.52,0,0,0,.63,1.93l0,.06a5.32,5.32,0,0,0-1.34,1.08.56.56,0,0,0,.07.78.5.5,0,0,0,.34.13.53.53,0,0,0,.43-.2,4.62,4.62,0,0,1,2.61-1.39.55.55,0,0,0,.46-.63.55.55,0,0,0-.62-.46,4.78,4.78,0,0,0-1,.25.5.5,0,0,0,0-.13,5.32,5.32,0,0,1,2.17-7.12,5.13,5.13,0,0,1,7,2.2,5.35,5.35,0,0,1,.36,4m.6-4.54a6.21,6.21,0,0,0-8.46-2.66,6.39,6.39,0,0,0-3.34,5.54,7.2,7.2,0,0,0-1,.44,6.06,6.06,0,0,0-3.47,5.73A3.43,3.43,0,0,0,354,113a4.05,4.05,0,0,0-3.34,1.69c-.07.08-.13.17-.2.26a1.58,1.58,0,0,0-1.11-.63,2.16,2.16,0,0,0-1.83,1,5.25,5.25,0,0,0,.86,6.44,3.46,3.46,0,0,0,2.23.94,2.84,2.84,0,0,0,.58-.05,3.2,3.2,0,0,0,2.06-1.33,6.6,6.6,0,0,0,1.44,2,6.73,6.73,0,0,0,4.57,1.76,11.49,11.49,0,0,0,8.44-4.05,11.66,11.66,0,0,0,3.17-9.55,6.48,6.48,0,0,0,.81-7.16"/></g><path class="cls-1" d="M355.12,113.51a.69.69,0,0,1-.24-.05c-.18-.09-1.73-.9-2-4.25-.14-1.8-1.08-2.06-2.39-2.41a5.63,5.63,0,0,1-2-.86,3.22,3.22,0,0,1-1.37-3.8.59.59,0,0,1,.74-.3.52.52,0,0,1,.32.69,2.29,2.29,0,0,0,1,2.6,4.72,4.72,0,0,0,1.63.65c1.34.36,3,.82,3.22,3.35.22,2.74,1.36,3.38,1.38,3.39a.51.51,0,0,1,.22.71.56.56,0,0,1-.51.28"/></g></g><g id="Group-2-Copy-7"><ellipse class="cls-35" cx="332.14" cy="46.61" rx="21.53" ry="21.6" transform="translate(-3.05 58.38) rotate(-10)"/><g id="Group-10-Copy-5"><g class="cls-37"><path class="cls-1" d="M332.9,60.06A9,9,0,0,1,329.33,43a.35.35,0,0,0,.21-.33l.12-6.59,7.31.13-.11,6.59a.38.38,0,0,0,.2.34,9,9,0,0,1-4.16,17m-6.48-26.63v-.67A1.81,1.81,0,0,1,328.26,31l10.29.18A1.8,1.8,0,0,1,340.31,33v.67a1.81,1.81,0,0,1-1.83,1.77l-1.11,0-8.06-.14-1.11,0a1.8,1.8,0,0,1-1.77-1.84m11.18,9.11.11-6.36h.75a2.54,2.54,0,0,0,2.58-2.5V33a2.53,2.53,0,0,0-2.49-2.59l-10.29-.18a2.54,2.54,0,0,0-2.58,2.5v.67A2.53,2.53,0,0,0,328.17,36l.75,0-.11,6.36a9.66,9.66,0,1,0,8.79.15"/></g><path class="cls-1" d="M329.24,51.48a1,1,0,1,1,1.06-1,1,1,0,0,1-1.06,1m9-1.25-2.7,0a.93.93,0,0,1-.68-.3,1.71,1.71,0,0,0-2.42,0,.94.94,0,0,1-.69.27H331a1.77,1.77,0,1,0,0,.74h.79a1.66,1.66,0,0,0,1.21-.48,1,1,0,0,1,1.38,0,1.7,1.7,0,0,0,1.2.52l2.7,0a.38.38,0,0,0,.38-.37.37.37,0,0,0-.37-.37"/><path class="cls-1" d="M335.53,56.65a1,1,0,1,1,1.06-1,1,1,0,0,1-1.06,1m.05-2.82a1.78,1.78,0,0,0-1.78,1.51h-.41a1.25,1.25,0,0,0-.91.36.53.53,0,0,1-.76,0,1.33,1.33,0,0,0-.9-.39l-1.83,0a.37.37,0,0,0,0,.74l1.83,0a.6.6,0,0,1,.38.17,1.28,1.28,0,0,0,1.81,0,.54.54,0,0,1,.38-.15h.46a1.78,1.78,0,1,0,1.74-2.25"/><path class="cls-1" d="M332.82,45.34a.92.92,0,1,1-.93.91.92.92,0,0,1,.93-.91m0,2.58a1.64,1.64,0,0,0,1.63-1.26l3.16.06a.37.37,0,0,0,.37-.37.36.36,0,0,0-.36-.37l-3.16-.06a1.65,1.65,0,1,0-1.64,2"/></g></g><g id="Group-2-Copy-11"><ellipse class="cls-35" cx="339.24" cy="171.46" rx="21.53" ry="21.6" transform="translate(-24.62 61.51) rotate(-10)"/><g id="Group-8"><path class="cls-1" d="M328.38,158.44a.55.55,0,0,0-.69-.35.53.53,0,0,0-.34.68c.36,1.12.76,2.09,1.15,3,1.23,3,2.12,5.17.44,8.92-3.78,8.42-.39,13.95-.24,14.18a.51.51,0,0,0,.47.25.5.5,0,0,0,.28-.08.55.55,0,0,0,.16-.75s-3.22-5.26.32-13.16c1.87-4.18.8-6.77-.43-9.77-.38-.92-.77-1.87-1.12-2.95"/><g id="Group-5"><g class="cls-38"><path class="cls-1" d="M352.83,168.42c-.49-3.79-3.18-7.84-7-10.57a.55.55,0,1,0-.63.89c3.61,2.55,6.13,6.32,6.58,9.82.93,7.24-5.11,11.92-5.17,12h0a.5.5,0,0,0-.07.08l-.07.08h0a11.47,11.47,0,0,0-1.29,3.55.54.54,0,0,0,.46.62h.09a.54.54,0,0,0,.52-.47,10.52,10.52,0,0,1,1.12-3.08c.83-.67,6.45-5.45,5.5-12.9"/></g></g><path class="cls-1" d="M342.24,179.38a4.06,4.06,0,0,1-2.75,1.53,4.12,4.12,0,0,1-.92-8.18h0a5.47,5.47,0,0,0,.26.7.56.56,0,0,0,.5.31.54.54,0,0,0,.48-.78,3.72,3.72,0,0,1-.27-2.31.54.54,0,0,0-.37-.67.53.53,0,0,0-.67.37,4.08,4.08,0,0,0-.11,1.32,4.86,4.86,0,0,0-1.44.39,2.93,2.93,0,0,1-.07-.41,4.52,4.52,0,0,1,.56-2.85,2.45,2.45,0,0,1,1.81-1.29c1.54-.17,3,1.4,3.23,3.51a4.81,4.81,0,0,1-.13,1.82.54.54,0,0,0,.39.66.36.36,0,0,0,.14,0,.54.54,0,0,0,.52-.4,5.89,5.89,0,0,0,.15-2.22,5.4,5.4,0,0,0-2-3.72,6.42,6.42,0,0,0,1.76-.91.54.54,0,0,0-.65-.87c-1.69,1.25-3.79,1.3-4.68.1s-.23-3.21,1.46-4.47a.54.54,0,0,0-.65-.87,6.21,6.21,0,0,0-1.54,1.67h0c-.17,0-.41,0-.51-.09a.75.75,0,0,1,0-.67,3.15,3.15,0,0,1,3.49-1.73,1.74,1.74,0,0,1,1.21.94,1.83,1.83,0,0,1-.22,1.77s0,0,0,0a6.85,6.85,0,0,0-1.74,1,.55.55,0,0,0-.1.77.54.54,0,0,0,.75.1,4.85,4.85,0,0,1,4-1c3,.71,4.64,4.56,3.69,8.6a8.54,8.54,0,0,1-3.63,5.41,4.57,4.57,0,0,0,0-.64,4.91,4.91,0,0,0-.13-.75.54.54,0,0,0-1.05.28,3.84,3.84,0,0,1,.11.59,4.1,4.1,0,0,1-.87,3m6.66-7.66c1.08-4.62-.94-9.07-4.5-9.9a5.11,5.11,0,0,0-1.87-.1,2.7,2.7,0,0,0-.11-1.9,2.79,2.79,0,0,0-1.93-1.54,4.21,4.21,0,0,0-4.76,2.37,1.8,1.8,0,0,0,.21,1.76,1.33,1.33,0,0,0,.87.49,3.51,3.51,0,0,0,.37,3.23,2.94,2.94,0,0,0,.75.7,3.81,3.81,0,0,0-1.39,1.4,5.66,5.66,0,0,0-.71,3.53,5.81,5.81,0,0,0,.17.85,5.2,5.2,0,0,0,3.12,9.41,4,4,0,0,0,.49,0A5.18,5.18,0,0,0,344,178.2a9.32,9.32,0,0,0,4.87-6.48"/></g></g><g id="Group-2-Copy-12"><ellipse class="cls-35" cx="193.28" cy="175.27" rx="21.53" ry="21.6" transform="translate(-27.5 36.22) rotate(-10)"/><g id="Group-18"><path class="cls-1" d="M200,176.3a5.63,5.63,0,0,0-.86-1.32.5.5,0,0,0-.71,0,.51.51,0,0,0,0,.71,3.53,3.53,0,0,1-1.1,5.77,6.85,6.85,0,0,1-4.34.62,6.73,6.73,0,0,1-4.31-2.42l.37-.05a4.31,4.31,0,0,0,.59-.16.5.5,0,0,0,.31-.63.49.49,0,0,0-.63-.32,2.46,2.46,0,0,1-.45.11,3.12,3.12,0,0,1-2.37-.5,3.17,3.17,0,1,1,4.9-3.23,5.24,5.24,0,0,0-.48.23.51.51,0,0,0-.19.69.5.5,0,0,0,.44.25.53.53,0,0,0,.24-.06,2.82,2.82,0,0,1,1.75-.34.49.49,0,0,0,.59-.38.5.5,0,0,0-.38-.6,3.48,3.48,0,0,0-1,0,4.14,4.14,0,0,0-.34-1l.23-.05a3.52,3.52,0,0,1,2.22.27,1.91,1.91,0,0,1,1.07,1.31c.21,1.17-.92,2.36-2.52,2.66a4.11,4.11,0,0,1-1.4,0,.49.49,0,0,0-.59.4.51.51,0,0,0,.4.59,5.14,5.14,0,0,0,.88.08,5.67,5.67,0,0,0,.9-.08,4.46,4.46,0,0,0,2.78-1.68,4.82,4.82,0,0,0,.76,1.23.5.5,0,0,0,.39.18.49.49,0,0,0,.32-.12.51.51,0,0,0,.06-.71c-1.06-1.24-1.21-2.84-.35-3.58a1.8,1.8,0,0,1,1.6-.31,3.62,3.62,0,0,1,1.88,1.2.49.49,0,0,0,.7.06.51.51,0,0,0,.06-.71,4.61,4.61,0,0,0-1.38-1.13c0-.1-.05-.26,0-.33a.52.52,0,0,1,.45-.06,2.31,2.31,0,0,1,1.23,1.09,2.35,2.35,0,0,1,.27,1.49,1.31,1.31,0,0,1-.63,1,1.38,1.38,0,0,1-1.33-.07m1.81,1a2.32,2.32,0,0,0,1.14-1.66,3.35,3.35,0,0,0-.38-2.15,3.25,3.25,0,0,0-1.8-1.56,1.49,1.49,0,0,0-1.44.27,1.14,1.14,0,0,0-.35.68h0a2.75,2.75,0,0,0-2.47.52,2.4,2.4,0,0,0-.47.54,3,3,0,0,0-1.13-.94,4.45,4.45,0,0,0-2.86-.37,4.34,4.34,0,0,0-.62.16,4.14,4.14,0,0,0-3.91-1.39,4.19,4.19,0,0,0-3.34,4.86,4.14,4.14,0,0,0,1.74,2.69,4,4,0,0,0,1.51.64,7.41,7.41,0,0,0,5.38,3.5,9.7,9.7,0,0,0,1.42.11,7.53,7.53,0,0,0,3.55-.84,4.78,4.78,0,0,0,2.64-3.43,4.39,4.39,0,0,0,0-1.4,1.87,1.87,0,0,0,.4,0,2.23,2.23,0,0,0,1-.26"/><g class="cls-39"><path class="cls-1" d="M205.22,183.82a.51.51,0,0,1-.51.5H182.26a.5.5,0,0,1-.5-.5v-17.9a.5.5,0,0,1,.5-.5h22.45a.5.5,0,0,1,.51.5Zm-.51-19.41H182.26a1.52,1.52,0,0,0-1.51,1.51v17.9a1.52,1.52,0,0,0,1.51,1.51h22.45a1.52,1.52,0,0,0,1.51-1.51v-17.9a1.52,1.52,0,0,0-1.51-1.51Z"/></g><path class="cls-1" d="M183.54,167.64h3.33a.51.51,0,0,0,.5-.51.5.5,0,0,0-.5-.5h-3.33a.5.5,0,0,0-.5.5.5.5,0,0,0,.5.51"/><path class="cls-1" d="M183.54,169.4h3.33a.51.51,0,0,0,0-1h-3.33a.51.51,0,0,0,0,1"/><path class="cls-1" d="M200.11,169.4h3.32a.51.51,0,1,0,0-1h-3.32a.51.51,0,0,0,0,1"/><path class="cls-1" d="M189.82,167.64h7.65a.5.5,0,0,0,.5-.51.5.5,0,0,0-.5-.5h-7.65a.5.5,0,0,0-.51.5.51.51,0,0,0,.51.51"/><path class="cls-1" d="M203.26,179a.5.5,0,0,0-.63-.34.52.52,0,0,0-.34.63l.62,2.07-1.55.51a.5.5,0,0,0,.16,1l.16,0,2-.66a.5.5,0,0,0,.32-.62Z"/><path class="cls-1" d="M185.61,181.86l-1.54-.51.61-2.07a.5.5,0,0,0-.34-.63.49.49,0,0,0-.62.34l-.75,2.54a.49.49,0,0,0,.32.62l2,.66a.4.4,0,0,0,.15,0,.5.5,0,0,0,.16-1"/></g></g><g id="Group-2-Copy-10"><ellipse class="cls-35" cx="199.04" cy="46.66" rx="21.53" ry="21.6"/><path class="cls-1" d="M196.9,49.23h1.35a.54.54,0,0,0,.54-.54V47.33h1.77v1.36a.54.54,0,0,0,.54.54h1.34V51H201.1a.54.54,0,0,0-.54.54v1.35h-1.77V51.54a.54.54,0,0,0-.54-.54H196.9Zm-1.07-.54v2.85a.54.54,0,0,0,.54.54h1.35v1.35a.54.54,0,0,0,.53.54h2.85a.54.54,0,0,0,.53-.54V52.08H203a.54.54,0,0,0,.54-.54V48.69a.54.54,0,0,0-.54-.54h-1.35V46.8a.54.54,0,0,0-.53-.54h-2.85a.54.54,0,0,0-.53.54v1.35h-1.35a.54.54,0,0,0-.54.54Z"/><g class="cls-40"><path class="cls-1" d="M211.71,41c-.74,2.45-3,5.11-5.2,5.17h-.11c-2.19-.06-4.45-2.72-5.19-5.17-.3-1-.61-2.79.7-3.76a2.82,2.82,0,0,1,4.1.67.38.38,0,0,0,.11.11h0l.16.07,0,0a.4.4,0,0,0,.11,0,.41.41,0,0,0,.11,0l.05,0,.16-.07h0a.38.38,0,0,0,.11-.11,2.83,2.83,0,0,1,4.1-.67c1.31,1,1,2.77.7,3.76m-24-4.75a.52.52,0,0,0,0-.37.29.29,0,0,1,0,.16.38.38,0,0,1-.07.21m5.33-.37a.55.55,0,0,0,0,.38A.37.37,0,0,1,193,36a.3.3,0,0,1,.05-.16m18.63.44a3.77,3.77,0,0,0-5.2.41,3.78,3.78,0,0,0-5.2-.41c-1.37,1-1.78,2.84-1.12,5,.81,2.65,3.19,5.54,5.76,5.92v7.92a2.5,2.5,0,0,1-2.47,2.52h-10a2.5,2.5,0,0,1-2.47-2.52V50.28c4-1.43,6.31-6.64,6.09-10.85a4.08,4.08,0,0,0-2.19-3.51,1.48,1.48,0,1,0-1.48,1.59,1.47,1.47,0,0,0,1.11-.52,2.93,2.93,0,0,1,1.45,2.5c.2,3.86-1.86,8.64-5.53,9.78-3.67-1.14-5.73-5.92-5.54-9.78A3,3,0,0,1,186.3,37a1.43,1.43,0,0,0,1.1.52,1.52,1.52,0,1,0-1.47-1.6,4.06,4.06,0,0,0-2.2,3.52c-.21,4.21,2.05,9.42,6.09,10.85v4.85a3.62,3.62,0,0,0,3.58,3.65h10A3.62,3.62,0,0,0,207,55.13V47.21c2.58-.38,5-3.27,5.76-5.92.67-2.18.26-4-1.11-5"/></g></g><g id="Group-2-Copy-8"><ellipse class="cls-35" cx="168.85" cy="110.42" rx="21.53" ry="21.6"/><g id="Group-10"><g class="cls-41"><path class="cls-1" d="M162.85,112.3h-4.42v-1.43h1.2a.51.51,0,0,0,0-1h-1.2v-2.12h1.2a.51.51,0,0,0,0-1h-1.2v-2.12h1.2a.46.46,0,0,0,.42-.5.47.47,0,0,0-.42-.51h-1.2v-2h4.42Zm-2.94,2.1h1.42v-1.09h-1.42Zm.73,8.14a1.5,1.5,0,0,1-1.37-1.61,7.73,7.73,0,0,1,1.37-2.82,7.73,7.73,0,0,1,1.37,2.82,1.5,1.5,0,0,1-1.37,1.61Zm2.64-21.93h-2.21v-1h2.09a.51.51,0,0,0,0-1h-5a.51.51,0,0,0,0,1h2.09v1H158a.48.48,0,0,0-.43.5V112.8a.48.48,0,0,0,.43.51h1.05v1.6a.46.46,0,0,0,.43.5h.73v1.7s0,0,0,0c-.46.64-1.8,2.6-1.8,3.8a2.25,2.25,0,1,0,4.44,0c0-1.2-1.34-3.16-1.8-3.8,0,0,0,0,0,0v-1.7h.69a.46.46,0,0,0,.42-.5v-1.6h1.1a.48.48,0,0,0,.43-.51V101.11a.48.48,0,0,0-.43-.5Z"/></g><g class="cls-42"><path class="cls-1" d="M181.47,113c0-2.27-1-4.29-4-7.59a2.4,2.4,0,0,0,.81-1,3.3,3.3,0,0,0-.11-2.62,12.82,12.82,0,0,0-2.39-3.53c-.2-.22-.38-.43-.53-.62a.47.47,0,0,0-.68-.06.5.5,0,0,0-.06.69c.16.21.35.42.55.65a11.76,11.76,0,0,1,2.22,3.25,2.32,2.32,0,0,1,.13,1.82,1.54,1.54,0,0,1-.73.75c-.72.24-1.45-.51-1.46-.52a.48.48,0,0,0-.68,0,.51.51,0,0,0,0,.7,2.86,2.86,0,0,0,1.85.87h.12c3,3.26,4,5.15,4,7.19a4,4,0,0,1-3.19,4h0l-.09,0-.08,0s0,0,0,0c-1.16.89-1.14,2.64-1.11,4.66v.06a.47.47,0,0,0,.48.48h0a.48.48,0,0,0,.48-.5v-.06c0-1.7,0-3.17.67-3.79a5,5,0,0,0,3.84-4.93"/></g><g id="Group-9"><g class="cls-43"><path class="cls-1" d="M167.7,104.2a5.44,5.44,0,0,0,2.76,1c-.13.35-.27.71-.43,1.1-.08.19-.24.59,1.69,6.71l-1.09.89c-.6-1.06-2.61-4.69-3-6.9a9,9,0,0,1,.09-2.75m5.56,7.48-.78.65a59,59,0,0,1-1.6-5.75,27,27,0,0,0,1.52-4.49.5.5,0,0,0-.34-.59.45.45,0,0,0-.54.38,20.67,20.67,0,0,1-.69,2.26,4.49,4.49,0,0,1-2.94-1,46.26,46.26,0,0,1,1.34-5,.51.51,0,0,0-.26-.64.44.44,0,0,0-.58.29,43.92,43.92,0,0,0-1.44,5.41h0a11.73,11.73,0,0,0-.23,3.9,19,19,0,0,0,1.6,4.29,11.73,11.73,0,0,0,1.08,10.93.44.44,0,0,0,.35.18.46.46,0,0,0,.29-.11.53.53,0,0,0,.06-.7,10.53,10.53,0,0,1-1.22-9.17c.43.84.81,1.52,1,1.87a.51.51,0,0,0-.08.64.45.45,0,0,0,.37.22.43.43,0,0,0,.26-.09c1.13-.84,3.28-2.67,3.37-2.74a.55.55,0,0,0,.08-.7.43.43,0,0,0-.64-.08"/></g></g></g></g><g id="Group-2-Copy-9"><ellipse class="cls-35" cx="265.69" cy="21.8" rx="21.53" ry="21.6"/><g class="cls-44"><path class="cls-1" d="M266.66,35.65a9.05,9.05,0,0,1-6.74-3.32c12.22-2.6,16.1-8.59,17.29-12.6,0,.45.05.91.05,1.36,0,8-4.75,14.56-10.6,14.56M256.31,17.94a19.73,19.73,0,0,0,3.15,8,26.34,26.34,0,0,1-2.64.52,19.2,19.2,0,0,1-.76-5.4,20.29,20.29,0,0,1,.25-3.15m10.35,4.13a6.94,6.94,0,0,0,1.52-.17A19.58,19.58,0,0,1,264.86,24,30.57,30.57,0,0,1,263,21a6.82,6.82,0,0,0,3.66,1.07m4.91-4c-.07.13-.15.26-.23.38a5.68,5.68,0,0,1-10.06-1.39c0-.18-.11-.36-.15-.55a5.69,5.69,0,1,1,11.22-1.31,5.58,5.58,0,0,1-.78,2.87M266.66,6.54c4.54,0,8.43,3.94,9.93,9.46.07.81.58,11.74-17.46,15.33a15.5,15.5,0,0,1-1.95-3.73c2.52-.37,10.95-2.06,15.11-8.5l.22-.36a1.63,1.63,0,0,1,.11-.17h0a6.84,6.84,0,1,0-12.79-3.34A6.52,6.52,0,0,0,260,16.7s0,0,0,0a1,1,0,0,0,0,.14,3.8,3.8,0,0,0,.16.55,28.21,28.21,0,0,0,3.61,7.07,26.12,26.12,0,0,1-3.19,1.16c-.95-1.37-4.44-6.94-2.88-12.41,1.89-4,5.18-6.7,8.92-6.7m11.06,9.28h0c-1.63-6.06-6-10.42-11.06-10.42-4.2,0-7.88,3-10,7.41a.59.59,0,0,0,0,.08h0a20.37,20.37,0,0,0-.74,14.49h0a16.56,16.56,0,0,0,2.48,4.85,1.09,1.09,0,0,0,.13.17,10.41,10.41,0,0,0,8.14,4.39c6.47,0,11.74-7,11.74-15.7a20.51,20.51,0,0,0-.68-5.27"/></g><path class="cls-1" d="M264.56,14.37a.57.57,0,0,0,0-1.14h-.34a.57.57,0,1,0,0,1.14Z"/><path class="cls-1" d="M269.1,13.23h-.34a.57.57,0,1,0,0,1.14h.34a.57.57,0,0,0,0-1.14"/><path class="cls-1" d="M268.31,16.8a3.2,3.2,0,0,1-3.3,0,.57.57,0,1,0-.65.93,4.18,4.18,0,0,0,4.6,0,.57.57,0,0,0-.65-.93"/></g></g></g></g></g></g></g></svg>